<svg width="1600" height="980" viewBox="0 0 1600 980" fill="none" xmlns="http://www.w3.org/2000/svg">
  <rect width="1600" height="980" fill="#EEE8DE"/>
  <path d="M956 170C1094 208 1184 332 1184 468C1184 638 1032 786 860 786C688 786 510 650 510 484C510 346 626 212 784 170C842 154 898 154 956 170Z" fill="url(#waveFill)" fill-opacity="0.9"/>
  <path d="M742 242C844 196 972 210 1052 292C1116 358 1138 450 1108 542C1078 632 1008 712 918 744C836 774 736 768 654 718C578 670 526 586 520 500C512 392 592 308 742 242Z" fill="url(#waveSoft)" fill-opacity="0.9"/>
  <text x="1050" y="520" fill="#F8F4EE" font-size="72" font-family="Instrument Sans, sans-serif" font-weight="500">AIRTISAN</text>
  <text x="1092" y="594" fill="#F8F4EE" font-size="52" font-family="Instrument Sans, sans-serif" font-weight="400">STUDIO</text>
  <defs>
    <radialGradient id="waveFill" cx="0" cy="0" r="1" gradientUnits="userSpaceOnUse" gradientTransform="translate(858 474) rotate(90) scale(314 338)">
      <stop stop-color="#BBB2A6"/>
      <stop offset="1" stop-color="#A59B8E"/>
    </radialGradient>
    <radialGradient id="waveSoft" cx="0" cy="0" r="1" gradientUnits="userSpaceOnUse" gradientTransform="translate(820 474) rotate(90) scale(298 308)">
      <stop stop-color="#DFD8CE"/>
      <stop offset="1" stop-color="#B4AA9C"/>
    </radialGradient>
  </defs>
</svg>
