<svg width="1600" height="1120" viewBox="0 0 1600 1120" fill="none" xmlns="http://www.w3.org/2000/svg">
  <rect width="1600" height="1120" fill="#EBE3D7"/>
  <path d="M936 202C1076 238 1174 352 1174 494C1174 660 1032 812 858 812C696 812 520 692 520 522C520 372 638 240 796 202C850 190 882 190 936 202Z" fill="#B9AF9E"/>
  <path d="M758 270C856 226 978 244 1056 324C1122 392 1144 486 1110 576C1078 662 1014 724 936 760C846 800 730 798 644 736C566 680 516 588 518 490C518 394 606 338 758 270Z" fill="#CFC6BA"/>
  <path d="M630 470C694 390 782 340 872 338C962 336 1054 388 1094 466C1132 540 1108 630 1038 694C970 756 874 786 788 770C696 752 616 704 582 626C548 550 568 550 630 470Z" fill="#DDD4C8"/>
</svg>
