<svg width="1600" height="1120" viewBox="0 0 1600 1120" fill="none" xmlns="http://www.w3.org/2000/svg">
  <rect width="1600" height="1120" fill="#060606"/>
  <rect x="226" y="150" width="1148" height="820" fill="#141414"/>
  <rect x="226" y="150" width="198" height="820" fill="#0E0E0E"/>
  <rect x="1236" y="150" width="138" height="820" fill="#0B0B0B"/>
  <rect x="654" y="560" width="290" height="222" fill="#1D1D1D"/>
  <rect x="706" y="504" width="186" height="72" fill="#D9D0C5"/>
  <rect x="1092" y="170" width="10" height="770" fill="#E5D8CA"/>
  <g opacity="0.6">
    <rect x="536" y="196" width="4" height="72" fill="#BEB6AC"/>
    <rect x="642" y="196" width="4" height="72" fill="#BEB6AC"/>
    <rect x="748" y="196" width="4" height="72" fill="#BEB6AC"/>
    <rect x="854" y="196" width="4" height="72" fill="#BEB6AC"/>
    <rect x="960" y="196" width="4" height="72" fill="#BEB6AC"/>
    <rect x="1066" y="196" width="4" height="72" fill="#BEB6AC"/>
  </g>
  <g opacity="0.34">
    <rect x="514" y="228" width="48" height="12" fill="#2C2C2C"/>
    <rect x="620" y="228" width="48" height="12" fill="#2C2C2C"/>
    <rect x="726" y="228" width="48" height="12" fill="#2C2C2C"/>
    <rect x="832" y="228" width="48" height="12" fill="#2C2C2C"/>
    <rect x="938" y="228" width="48" height="12" fill="#2C2C2C"/>
    <rect x="1044" y="228" width="48" height="12" fill="#2C2C2C"/>
  </g>
</svg>
